<?xml version="1.0" encoding="UTF-8"?>
<svg id="Layer_1" data-name="Layer 1" xmlns="http://www.w3.org/2000/svg" viewBox="0 0 1766.06 978.35">
  <defs>
    <style>
      .cls-1 {
        font-family: CooperBlack, 'Cooper Black';
        font-size: 257.17px;
      }

      .cls-2 {
        letter-spacing: 0em;
      }

      .cls-3 {
        letter-spacing: .02em;
      }

      .cls-4 {
        letter-spacing: .03em;
      }

      .cls-5 {
        letter-spacing: 0em;
      }

      .cls-6 {
        letter-spacing: -.01em;
      }

      .cls-7 {
        letter-spacing: -.01em;
      }

      .cls-8 {
        letter-spacing: .01em;
      }

      .cls-9 {
        letter-spacing: 0em;
      }

      .cls-10 {
        letter-spacing: 0em;
      }

      .cls-11 {
        letter-spacing: 0em;
      }

      .cls-12 {
        font-family: MinionVariableConcept-Roman, 'Minion Variable Concept';
        font-size: 62px;
        font-variation-settings: 'wght' 400, 'opsz' 11;
      }

      .cls-13 {
        letter-spacing: 0em;
      }

      .cls-14 {
        letter-spacing: 0em;
      }

      .cls-15 {
        letter-spacing: -.02em;
      }

      .cls-16 {
        font-family: Oswald-Regular, Oswald;
        font-size: 106px;
      }

      .cls-17 {
        letter-spacing: 0em;
      }

      .cls-18 {
        letter-spacing: -.03em;
      }

      .cls-19 {
        letter-spacing: 0em;
      }

      .cls-20 {
        letter-spacing: 0em;
      }

      .cls-21 {
        letter-spacing: .02em;
      }

      .cls-22 {
        letter-spacing: .01em;
      }

      .cls-23 {
        letter-spacing: -.05em;
      }

      .cls-24 {
        letter-spacing: 0em;
      }
    </style>
  </defs>
  <path d="M331.47,848.57c-22.61-15.27-52.74-37.88-84.64-69.25-25.68-25.26-59.98-59.52-89.13-113.58-15.07-27.94-32.77-60.76-38.68-108.64-6.2-50.19,3.96-89.36,8.12-103.5,3.05-10.36,17.41-53.46,58.13-101.73,47.13-55.86,101.69-83.14,132.51-95.75,2.3-.94-57.19,14.75-114.98,59.22-32.67,25.14-73.28,56.38-97.03,112.62-34.9,82.61-8.79,160.85-1.71,182.09,20.07,60.17,55.22,96.59,93.18,135.93,49.55,51.34,99.52,83.49,134.22,102.59Z"/>
  <path d="M202.38,671.61c-9.29-24.35-29.34-86.64-12.82-164.14,5.84-27.43,22.85-87.67,74.38-140.2,48.9-49.86,102.9-66.27,157.3-82.07,57.98-16.84,159.38-37.38,291.52-17.95,3.99-5.98,7.98-11.97,11.97-17.95-75.88-15.23-139.55-15.42-184.01-12.5-33.3,2.19-78.53,5.46-134.78,23.83-23.73,7.75-59.84,19.55-98.4,45.09-25.38,16.81-94.27,62.45-123.96,150.46-35.07,103.95,8.69,195.5,18.81,215.44Z"/>
  <path d="M381.9,808.39c-29.85-31.3-70.82-84.05-92.33-159.01-13.52-47.12-32.14-112-1.71-178.67,24.2-53.02,68.26-82.7,82.93-92.33,27.49-18.05,51.06-25.34,76.94-33.34,56.45-17.46,102.96-19.06,156.45-20.52,25.31-.69,59.79-.63,100.88,2.56,1.99-3.13,3.99-6.27,5.98-9.4-34.37-4.73-81.88-8.97-138.49-6.84-30.23,1.14-64.41,2.59-107.72,11.97-55.44,12.01-104.62,22.66-149.61,62.41-13.69,12.1-53.08,47.83-67.54,106.86-15.1,61.63,5.82,112.5,25.65,160.72,14.82,36.04,45.48,96.54,108.57,155.59Z"/>
  <path d="M364.81,642.56c19.38-9.97,38.76-19.95,58.13-29.92-12.25,15.67-24.51,31.35-36.76,47.02,6.84,3.13,13.68,6.27,20.52,9.4,23.94-20.8,47.87-41.61,71.81-62.41-15.67,27.07-31.35,54.14-47.02,81.22l17.95,11.11c14.25-12.25,28.5-24.51,42.75-36.76-7.98,15.96-15.96,31.92-23.94,47.87,7.41,2.28,14.82,4.56,22.23,6.84,18.52-16.24,37.05-32.49,55.57-48.73-10.83,22.8-21.66,45.59-32.49,68.39,5.41,2.85,10.83,5.7,16.24,8.55,16.53-11.97,33.06-23.94,49.58-35.91-10.54,15.67-21.09,31.35-31.63,47.02,16.81,5.13,33.63,10.26,50.44,15.39,9.27-12.62,18.88-27.96,27.36-46.16,22.3-47.91,25.96-92.62,25.65-121.4-41.89-23.08-83.78-46.16-125.67-69.25-15.23,10.96-32.86,22.12-53,32.49-53.17,27.38-103.35,38.74-141.06,43.6,11.11,10.54,22.23,21.09,33.34,31.63Z"/>
  <path d="M549.46,524.58c34.2,17.95,68.39,35.91,102.59,53.86,1.64-9.06,3.17-24.62-1.71-42.75-2.93-10.88-7.31-19.49-11.11-25.65,76.66-148.18,153.31-296.37,229.97-444.55,2.19-4.83.73-10.54-3.42-13.68-4.32-3.26-10.51-2.93-14.53.85-80.08,147.9-160.15,295.8-240.23,443.69-8.55.84-21.61,3.19-35.91,10.26-11.58,5.72-20.04,12.6-25.65,17.95Z"/>
  <path d="M757.66,319.97c25.57,4.29,52.42,9.63,80.36,16.24,42.84,10.15,82.23,21.89,117.98,34.2-39.58-9-81.33-17.31-125.14-24.56-26.46-4.37-52.3-8.13-77.47-11.35,1.42-4.84,2.85-9.69,4.27-14.53Z"/>
  <path d="M1020.18,345.19c-37.88-16.74-79.53-33.31-124.82-48.73-36.67-12.49-71.85-22.91-105.15-31.63-2.85,4.56-5.7,9.12-8.55,13.68,9.83,1.88,22.66,4.43,37.62,7.69,16.42,3.58,47.36,10.63,85.49,21.37,32.01,9.01,71.1,21.2,115.41,37.62Z"/>
  <path d="M1096.13,412.25l-6.67-30.15c-.55-2.51-2.51-4.47-5.02-5.02l-30.15-6.67,30.15-6.67c2.51-.55,4.47-2.51,5.02-5.02l6.67-30.15,6.67,30.15c.55,2.51,2.51,4.47,5.02,5.02l30.15,6.67-30.15,6.67c-2.51.55-4.47,2.51-5.02,5.02l-6.67,30.15Z"/>
  <path d="M1036.73,476.25l-7.99-36.12c-.55-2.51-2.51-4.47-5.02-5.02l-36.12-7.99,36.12-7.99c2.51-.55,4.47-2.51,5.02-5.02l7.99-36.12,7.99,36.12c.55,2.51,2.51,4.47,5.02,5.02l36.12,7.99-36.12,7.99c-2.51.55-4.47,2.51-5.02,5.02l-7.99,36.12Z"/>
  <path d="M1132.4,479.81l-4.63-20.94c-.55-2.51-2.51-4.47-5.02-5.02l-20.94-4.63,20.94-4.63c2.51-.55,4.47-2.51,5.02-5.02l4.63-20.94,4.63,20.94c.55,2.51,2.51,4.47,5.02,5.02l20.94,4.63-20.94,4.63c-2.51.55-4.47,2.51-5.02,5.02l-4.63,20.94Z"/>
  <path d="M946.4,444.11l-5.15-23.31c-.55-2.51-2.51-4.47-5.02-5.02l-23.31-5.15,23.31-5.15c2.51-.55,4.47-2.51,5.02-5.02l5.15-23.31,5.15,23.31c.55,2.51,2.51,4.47,5.02,5.02l23.31,5.15-23.31,5.15c-2.51.55-4.47,2.51-5.02,5.02l-5.15,23.31Z"/>
  <path d="M1205.4,476.21l-3.21-14.52c-.55-2.51-2.51-4.47-5.02-5.02l-14.52-3.21,14.52-3.21c2.51-.55,4.47-2.51,5.02-5.02l3.21-14.52,3.21,14.52c.55,2.51,2.51,4.47,5.02,5.02l14.52,3.21-14.52,3.21c-2.51.55-4.47,2.51-5.02,5.02l-3.21,14.52Z"/>
  <rect x="419.68" y="785.15" width="26.7" height="26.7" transform="translate(-376.44 386.34) rotate(-34.55)"/>
  <rect x="477.99" y="773.42" width="26.7" height="26.7" transform="translate(-359.51 417.34) rotate(-34.55)"/>
  <polygon points="492.82 818.56 478.99 847.61 460.75 821.11 492.82 818.56"/>
  <polygon points="476.95 753.61 461.6 785.86 441.34 756.44 476.95 753.61"/>
  <polygon points="415.2 757.86 399.62 790.6 379.06 760.74 415.2 757.86"/>
  <text class="cls-1" transform="translate(686.85 674.51) scale(1.25 1)"><tspan class="cls-3" x="0" y="0">B</tspan><tspan class="cls-18" x="190.55" y="0">A</tspan><tspan class="cls-23" x="394.8" y="0">Y</tspan><tspan class="cls-4" x="583.22" y="0">A</tspan></text>
  <text class="cls-16" transform="translate(675.13 798.5) scale(1.28 1)"><tspan class="cls-11" x="0" y="0">SO</tspan><tspan class="cls-9" x="109.39" y="0">L</tspan><tspan class="cls-22" x="151.58" y="0">UTIONS LIMITED</tspan></text>
  <circle cx="1172.82" cy="417.29" r="9.83"/>
  <circle cx="986.01" cy="453.46" r="4.91"/>
  <g>
    <rect x="1609.42" y="836.47" width="73" height="31.76"/>
    <rect x="679.62" y="836.47" width="73" height="31.76"/>
    <text class="cls-12" transform="translate(779.5 868.05) scale(1.13 1)"><tspan class="cls-10" x="0" y="0">S</tspan><tspan class="cls-19" x="30.13" y="0">p</tspan><tspan class="cls-20" x="62.81" y="0">a</tspan><tspan class="cls-7" x="90.58" y="0">r</tspan><tspan class="cls-24" x="112.9" y="0">k</tspan><tspan class="cls-14" x="143.28" y="0">l</tspan><tspan x="159.15" y="0">e </tspan><tspan class="cls-17" x="200.38" y="0">W</tspan><tspan class="cls-2" x="257.11" y="0">i</tspan><tspan class="cls-24" x="273.54" y="0">th </tspan><tspan class="cls-21" x="340.5" y="0">B</tspan><tspan class="cls-15" x="378.57" y="0">a</tspan><tspan class="cls-8" x="405.41" y="0">y</tspan><tspan class="cls-20" x="434.12" y="0">a </tspan><tspan class="cls-13" x="476.34" y="0">S</tspan><tspan x="507.4" y="0">o</tspan><tspan class="cls-5" x="539.39" y="0">l</tspan><tspan x="555.26" y="0">ut</tspan><tspan class="cls-5" x="607.22" y="0">i</tspan><tspan class="cls-2" x="623.77" y="0">o</tspan><tspan class="cls-6" x="655.39" y="0">n</tspan><tspan x="689" y="0">s</tspan></text>
  </g>
</svg>